<svg width="20" height="12" viewBox="0 0 20 12" fill="none" xmlns="http://www.w3.org/2000/svg">
<path d="M19.5898 4.25618L17.3481 0.287475C17.1532 -0.051317 16.7959 -0.0997153 16.536 0.190678C16.3086 0.481071 16.2761 1.01346 16.471 1.40065L18.5827 5.12736H0.584769C0.259897 5.12736 0 5.51455 0 5.99854C0 6.48253 0.259897 6.86972 0.584769 6.86972H18.5827L16.471 10.5964C16.2761 10.9352 16.3086 11.4676 16.536 11.8064C16.6334 11.9516 16.7634 12 16.8933 12C17.0558 12 17.2182 11.9032 17.3157 11.7096L19.5573 7.7409C20.142 6.67613 20.142 5.22416 19.5898 4.25618Z" fill="#212B36"/>
</svg>
